<svg id="Layer_1" data-name="Layer 1" xmlns="http://www.w3.org/2000/svg" viewBox="0 0 119 119">
  <g>
    <g>
      <circle cx="60" cy="60" r="56.54" transform="translate(-6.82 112.43) rotate(-83.6)" fill="#6fe3bf"/>
      <path d="M60,119.5A59.5,59.5,0,1,1,119.5,60,59.57,59.57,0,0,1,60,119.5ZM60,6.42A53.58,53.58,0,1,0,113.58,60,53.63,53.63,0,0,0,60,6.42Z" transform="translate(-0.5 -0.5)" fill="#37b08f"/>
    </g>
    <path d="M113.58,60a53.07,53.07,0,0,0-1.23-11.42L95,31.27a8.49,8.49,0,0,0-1-.94,8.87,8.87,0,0,0-12.45,1.58l-30.15,39-.11-.12L32.07,51.53A8.87,8.87,0,0,0,18.88,63.39l24.83,29a7.39,7.39,0,0,0,.67.7l20.31,20.32A53.65,53.65,0,0,0,113.58,60Z" transform="translate(-0.5 -0.5)" fill="#37b08f"/>
    <path d="M94,30.33a8.87,8.87,0,0,0-12.45,1.58L50.1,72.54,32.35,51.84A8.87,8.87,0,1,0,18.88,63.39l24.83,29a8.88,8.88,0,0,0,6.74,3.1h.22A8.86,8.86,0,0,0,57.46,92L95.59,42.78A8.87,8.87,0,0,0,94,30.33Z" transform="translate(-0.5 -0.5)" fill="#ecf0f1"/>
  </g>
</svg>
