<svg xmlns="http://www.w3.org/2000/svg" viewBox="0 0 119.51 145.24">
  <g style="isolation: isolate">
    <g id="Layer_1" data-name="Layer 1">
      <g>
        <g>
          <path d="M25.56,132.38a.32.32,0,0,1-.45,0L23,130.45l1.34-1L25.67,132A.33.33,0,0,1,25.56,132.38Z" transform="translate(-17.86 -2.38)" fill="#535759"/>
          <path d="M23.39,128.61a6.43,6.43,0,0,0-1.21-1.54,6.13,6.13,0,0,1-.44-1c-.07.09-.64.74-.78.85a2.6,2.6,0,0,1-.48.31c.31.42.71.77,1.06,1.16a14.57,14.57,0,0,0,1.21,1.38.82.82,0,0,0,.2-.12l.58-.45a.9.9,0,0,0,.24-.31A.45.45,0,0,1,23.39,128.61Z" transform="translate(-17.86 -2.38)" fill="#093556"/>
        </g>
        <path d="M26.41,137.69l-.33-.2C25.94,137.61,26,137.68,26.41,137.69Z" transform="translate(-17.86 -2.38)" fill="#8e9ee6" opacity="0.5" style="mix-blend-mode: multiply"/>
        <g>
          <path d="M80.31,142.62l8.56-.18L87.73,87a1.92,1.92,0,0,0-2-1.88l-5.49.12a1.91,1.91,0,0,0-1.88,2l1.15,55.59A2,2,0,0,1,80.31,142.62Z" transform="translate(-17.86 -2.38)" fill="#093556"/>
          <path d="M80.31,142.62l6.46-.13L85.6,86.18a1,1,0,0,0-1.06-1l-5.15.11a1,1,0,0,0-1,1.06l1.17,56.46A2,2,0,0,1,80.31,142.62Z" transform="translate(-17.86 -2.38)" fill="#174890"/>
          <path d="M111.67,122.28l5.41-.11a20.57,20.57,0,0,0,3.52-.3c.39-.21-3.5-16.45-4.35-20.21l-6-26.5q-2.06-9-4.09-18l-.3-1.31c-.24-1.05-1.07-1.76-1.86-1.59l-7.4,1.62a1.77,1.77,0,0,0-1,2.23l14.22,62.76A1.85,1.85,0,0,0,111.67,122.28Z" transform="translate(-17.86 -2.38)" fill="#174890"/>
          <path d="M111.67,122.28l6.79-.14-15.1-66.69a1,1,0,0,0-1-.87L95.94,56a.94.94,0,0,0-.54,1.2l14.42,63.71a1.79,1.79,0,0,0,1.83,1.38Z" transform="translate(-17.86 -2.38)" fill="#093556"/>
          <path d="M88.3,114.72,87.73,87a1.73,1.73,0,0,0-1.52-1.85l-6.37.14a1.71,1.71,0,0,0-1.44,1.91l.79,38.49A51.48,51.48,0,0,0,88.3,114.72Z" transform="translate(-17.86 -2.38)" fill="#093556"/>
          <path d="M39.51,84.36l-6.79-2.14a1.71,1.71,0,0,0-2.13,1.36L18,135.41a2,2,0,0,0,1.94,2.41l5.37-.11a4,4,0,0,0,3.79-3l11.63-47.9A2,2,0,0,0,39.51,84.36Z" transform="translate(-17.86 -2.38)" fill="#093556"/>
          <path d="M111.35,80l-5.49-24.21c-.23-1.05-1.07-1.76-1.86-1.59l-7.4,1.62a1.77,1.77,0,0,0-1,2.23l9.21,40.65a108.36,108.36,0,0,0,5.44-14.62Q110.84,82.06,111.35,80Z" transform="translate(-17.86 -2.38)" fill="#093556"/>
          <path d="M38,83.88,32,82a.94.94,0,0,0-1.16.74L17.91,135.8a1.64,1.64,0,0,0,1.63,2l6.37-.13L38.66,85.19A1.1,1.1,0,0,0,38,83.88Z" transform="translate(-17.86 -2.38)" fill="#174890"/>
          <path d="M90.84,4.52c-3.45-1-16-2.31-17.92-2.12-1.57.16,1.79.37,1.69,1.11l-.32,2.42c-15,6.23-29.57,25-36.74,49.44C29.45,83.06,33.39,109.47,46,121l-.35,2.81c-.11.82,2.24,1.67,3.19,2.16,0,0,4.5.58,10.77.7l.36,0h0C78.55,128,99.4,106.53,108.5,75.43c9.84-33.62,1.93-65.36-17.65-70.91Z" transform="translate(-17.86 -2.38)" fill="#308aca"/>
          <path d="M39.51,84.36l-6.79-2.14a1.71,1.71,0,0,0-2.13,1.36l-5.84,24A44.81,44.81,0,0,0,32,122.8l8.75-36A2,2,0,0,0,39.51,84.36Z" transform="translate(-17.86 -2.38)" fill="#093556"/>
          <path d="M39.57,84.38,32.65,82.2a1.66,1.66,0,0,0-2,1.31l-4.54,18.71A47.82,47.82,0,0,0,33,118.61L40.74,86.7A1.93,1.93,0,0,0,39.57,84.38Z" transform="translate(-17.86 -2.38)" fill="#093556"/>
          <ellipse cx="62.3" cy="64.25" rx="63.49" ry="38.91" transform="translate(-34.95 103.18) rotate(-73.38)" fill="#50bbf5"/>
          <ellipse cx="62.1" cy="64.25" rx="53.49" ry="32.78" transform="matrix(0.29, -0.96, 0.96, 0.29, -35.09, 103)" fill="#f7e7d2"/>
          <ellipse cx="61.5" cy="64.57" rx="43.08" ry="26.4" transform="translate(-35.83 102.65) rotate(-73.38)" fill="#50bbf5"/>
          <ellipse cx="60.46" cy="62.85" rx="28.52" ry="17.48" transform="translate(-34.92 100.43) rotate(-73.38)" fill="#f7e7d2"/>
          <ellipse cx="59.38" cy="62.04" rx="8.74" ry="5.36" transform="translate(-34.92 98.8) rotate(-73.38)" fill="#50bbf5"/>
        </g>
        <g>
          <path d="M130.08,30.54,128.55,53.3l6-10.54c5.42-9.84,2.39-11.51-4.1-12.18Z" transform="translate(-17.86 -2.38)" fill="#37b08f"/>
          <path d="M128.81,30.6l-1.53,22.75L122.72,42.1c-4-10.48-.82-11.72,5.7-11.52Z" transform="translate(-17.86 -2.38)" fill="#a4fff2"/>
          <path d="M122.58,130.48a.27.27,0,0,1-.28-.25l-.26-2.45,1.43.11-.57,2.38A.28.28,0,0,1,122.58,130.48Z" transform="translate(-17.86 -2.38)" fill="#50bbf5"/>
          <path d="M122.28,123.44c.39.35,1.24,0,1.78.13l6.3-93.41a.52.52,0,0,0-.48-.55l-1-.07a.52.52,0,0,0-.55.49L122,123.36A.35.35,0,0,1,122.28,123.44Z" transform="translate(-17.86 -2.38)" fill="#093556"/>
          <path d="M123.36,126.87a6.17,6.17,0,0,0,.12-1.66,4,4,0,0,1,.28-.87c-.1,0-.83.1-1,.09a1.86,1.86,0,0,1-.49-.08c0,.44,0,.89,0,1.34a11.46,11.46,0,0,0,0,1.55.65.65,0,0,0,.19,0l.63,0a.87.87,0,0,0,.32-.06A.4.4,0,0,1,123.36,126.87Z" transform="translate(-17.86 -2.38)" fill="#093556"/>
          <path d="M121.89,123.32h2a0,0,0,0,1,0,0v3.79a1,1,0,0,1-1,1h-.11a1,1,0,0,1-1-1v-3.79A0,0,0,0,1,121.89,123.32Z" transform="matrix(1, 0.07, -0.07, 1, -9.1, -10.39)" fill="#50bbf5"/>
          <path d="M126.6,55.71l-.24,3.62c.68.06,1.35.13,2,.21l.25-3.63C128,55.83,127.28,55.76,126.6,55.71Z" transform="translate(-17.86 -2.38)" fill="#ffdb9c"/>
        </g>
        <g>
          <path d="M47.79,79.62,64.68,94.94,60.15,83.68c-4.35-10.36-7.54-9-12.09-4.34A3.57,3.57,0,0,0,47.79,79.62Z" transform="translate(-17.86 -2.38)" fill="#de4d4d"/>
          <path d="M47,80.65,63.94,96,52.28,92.56c-10.73-3.33-9.7-6.63-5.5-11.62C46.87,80.85,47,80.75,47,80.65Z" transform="translate(-17.86 -2.38)" fill="#ffa496"/>
          <path d="M121.51,147.5a.26.26,0,0,1-.37.07l-2.08-1.31,1-1.07,1.51,1.94A.26.26,0,0,1,121.51,147.5Z" transform="translate(-17.86 -2.38)" fill="#50bbf5"/>
          <path d="M115.8,143.37c.52-.09.8-1,1.21-1.32L47.66,79.17a.52.52,0,0,0-.74,0l-.66.73a.53.53,0,0,0,0,.74l69.29,62.84A.41.41,0,0,1,115.8,143.37Z" transform="translate(-17.86 -2.38)" fill="#093556"/>
          <path d="M119.17,144.66a6,6,0,0,0-1.23-1.13,4.39,4.39,0,0,1-.51-.76c-.05.09-.44.71-.53.82a1.87,1.87,0,0,1-.37.33c.32.31.71.54,1,.82a10.27,10.27,0,0,0,1.22,1,.79.79,0,0,0,.15-.12l.42-.46a.85.85,0,0,0,.15-.3A.36.36,0,0,1,119.17,144.66Z" transform="translate(-17.86 -2.38)" fill="#093556"/>
          <path d="M116.94,141.91h2a0,0,0,0,1,0,0v3.79a1,1,0,0,1-1,1h-.11a1,1,0,0,1-1-1v-3.79A0,0,0,0,1,116.94,141.91Z" transform="translate(-86.02 132.38) rotate(-47.8)" fill="#50bbf5"/>
          <path d="M65.37,98l2.69,2.44c.46-.49.94-1,1.42-1.45l-2.7-2.45C66.3,97,65.83,97.47,65.37,98Z" transform="translate(-17.86 -2.38)" fill="#ffdb9c"/>
        </g>
      </g>
    </g>
  </g>
</svg>
