<?xml version="1.0" encoding="utf-8"?>
<!-- Generator: Adobe Illustrator 25.0.1, SVG Export Plug-In . SVG Version: 6.00 Build 0)  -->
<svg version="1.1" id="Layer_1" xmlns="http://www.w3.org/2000/svg" xmlns:xlink="http://www.w3.org/1999/xlink" x="0px" y="0px"
	 viewBox="0 0 130 130" style="enable-background:new 0 0 130 130;" xml:space="preserve">
<style type="text/css">
	.st0{fill:#2E8AC6;}
	.st1{fill:#093458;}
	.st2{fill:#E04D4F;}
	.st3{fill:#B93A28;}
	.st4{fill:#F9F6EE;}
	.st5{fill:#0E666D;}
	.st6{fill:#EBE9DC;}
	.st7{fill:#E5E1D1;}
	.st8{fill:#BCB8AC;}
	.st9{fill:#E5736D;}
	.st10{fill:#6CE3BE;}
	.st11{fill:#34B094;}
</style>
<g>
	<g>
		<circle class="st0" cx="65" cy="65" r="64"/>
		<circle class="st1" cx="65" cy="65" r="57.48"/>
	</g>
	<g>
		<g>
			<path class="st2" d="M71.24,33.15c-3.77,2.53-8.71,2.53-12.48,0c0,22.39,0,44.79,0,67.18c3.77,2.53,8.71,2.53,12.48,0
				C71.24,77.93,71.24,55.54,71.24,33.15z"/>
			<rect x="71.24" y="33.15" class="st3" width="38.96" height="67.18"/>
			<rect x="19.8" y="33.15" class="st3" width="38.96" height="67.18"/>
		</g>
		<path class="st4" d="M23.86,30.08h36.56c0.41,0,0.8,0.06,1.18,0.16c1.96,0.52,3.4,2.3,3.4,4.42v-0.05c0-2.12,1.44-3.9,3.4-4.42
			c0.38-0.1,0.77-0.16,1.18-0.16h36.56l1.58,1.58v66.14H69.85c0,0.01,0,0.03,0,0.04v0.87c-2.92,1.65-6.76,1.65-9.69,0V97.8H22.28
			V31.66L23.86,30.08z"/>
		<polygon class="st5" points="72.28,27.78 69.52,30.94 80.17,30.94 82.05,27.78 		"/>
		<polygon class="st4" points="106.14,30.03 106.14,31.62 69.84,31.62 69.84,97.75 107.72,97.75 107.72,37.21 107.72,31.62 		"/>
		<g>
			<rect x="85.57" y="30.03" class="st6" width="20.57" height="64.7"/>
			<path class="st4" d="M69.58,30.03h15.99v64.7H69.58c-0.41,0-0.8,0.06-1.18,0.16v-64.7C68.78,30.09,69.17,30.03,69.58,30.03z"/>
			<path class="st6" d="M68.4,30.19v64.7c-1.96,0.52-3.4,2.3-3.4,4.42v-64.7C65,32.49,66.44,30.72,68.4,30.19z"/>
		</g>
		<path class="st4" d="M107.72,97.75l-1.58-3.02H69.58c-2.42,0-4.4,1.88-4.56,4.25c1.69,0,3.37-0.41,4.83-1.24H107.72z"/>
		<polygon class="st7" points="23.86,30.08 23.86,31.66 60.16,31.66 60.16,97.8 22.28,97.8 22.28,37.26 22.28,31.66 		"/>
		<g>
			<rect x="23.86" y="30.08" class="st4" width="20.57" height="64.7"/>
			<path class="st6" d="M60.42,30.08H44.43v64.7h15.99c0.41,0,0.8,0.06,1.18,0.16v-64.7C61.22,30.14,60.83,30.08,60.42,30.08z"/>
			<path class="st7" d="M61.6,30.24v64.7c1.96,0.52,3.4,2.3,3.4,4.42v-64.7C65,32.54,63.56,30.76,61.6,30.24z"/>
		</g>
		<path class="st4" d="M22.28,97.8l1.58-3.02h36.56c2.42,0,4.4,1.88,4.56,4.25c-1.69,0-3.37-0.41-4.83-1.24H22.28z"/>
		<g>
			<rect x="69.3" y="35.41" class="st8" width="32.54" height="1.6"/>
			<rect x="69.3" y="39.47" class="st8" width="32.54" height="1.6"/>
			<rect x="69.3" y="43.53" class="st8" width="32.54" height="1.6"/>
			<rect x="69.3" y="47.6" class="st8" width="32.54" height="1.6"/>
			<rect x="69.3" y="51.66" class="st8" width="32.54" height="1.6"/>
			<rect x="69.3" y="55.72" class="st8" width="32.54" height="1.6"/>
			<rect x="69.3" y="59.78" class="st8" width="32.54" height="1.6"/>
			<rect x="69.3" y="63.84" class="st8" width="32.54" height="1.6"/>
			<rect x="69.3" y="67.91" class="st8" width="32.54" height="1.6"/>
			<rect x="69.3" y="71.97" class="st8" width="32.54" height="1.6"/>
			<rect x="69.3" y="76.03" class="st8" width="32.54" height="1.6"/>
			<rect x="69.3" y="80.09" class="st8" width="32.54" height="1.6"/>
			<rect x="69.3" y="84.16" class="st8" width="32.54" height="1.6"/>
			<rect x="69.3" y="88.22" class="st8" width="32.54" height="1.6"/>
			<rect x="28.16" y="35.45" class="st8" width="32.54" height="1.6"/>
			<rect x="28.16" y="39.52" class="st8" width="32.54" height="1.6"/>
			<rect x="28.16" y="43.58" class="st8" width="32.54" height="1.6"/>
			<rect x="28.16" y="47.64" class="st8" width="32.54" height="1.6"/>
			<rect x="28.16" y="51.7" class="st8" width="32.54" height="1.6"/>
			<rect x="28.16" y="55.77" class="st8" width="32.54" height="1.6"/>
			<rect x="28.16" y="59.83" class="st8" width="32.54" height="1.6"/>
			<rect x="28.16" y="63.89" class="st8" width="32.54" height="1.6"/>
			<rect x="28.16" y="67.95" class="st8" width="32.54" height="1.6"/>
			<rect x="28.16" y="72.01" class="st8" width="32.54" height="1.6"/>
			<rect x="28.16" y="76.08" class="st8" width="32.54" height="1.6"/>
			<rect x="28.16" y="80.14" class="st8" width="32.54" height="1.6"/>
			<rect x="28.16" y="84.2" class="st8" width="32.54" height="1.6"/>
			<rect x="28.16" y="88.26" class="st8" width="32.54" height="1.6"/>
		</g>
		<path class="st9" d="M69.84,97.75c0,0.3,0,0.6,0,0.9c-2.92,1.65-6.76,1.65-9.69,0c0-0.3,0-0.6,0-0.9
			C63.08,99.4,66.92,99.4,69.84,97.75z"/>
		<g>
			<polygon class="st10" points="72.28,27.78 72.28,69.93 77.16,68.43 77.16,27.78 			"/>
			<polygon class="st11" points="82.05,27.78 77.16,27.78 77.16,68.43 82.05,69.93 			"/>
		</g>
	</g>
</g>
</svg>
