<svg id="Layer_1" data-name="Layer 1" xmlns="http://www.w3.org/2000/svg" viewBox="0 0 140.32 146.79">
  <g>
    <g>
      <rect x="42.79" y="132.86" width="53.84" height="11.55" fill="#093556"/>
      <g>
        <path d="M124.34,32.06c-4.49-3.87-10.36-4.2-14.11-3.9q-.17-2.86-.45-5.65l-69.44,0q-.29,2.79-.44,5.65c-3.76-.29-9.63,0-14.1,3.92-4.21,3.65-6,9.31-5.27,16.84,1.66,17.49,20.17,24.78,27.31,27C53,87.24,60.12,95.32,68.29,98.25a7.59,7.59,0,0,0-1,3.79,7.77,7.77,0,0,0,2.83,6c-10.62,2.55-18.57,13-18.56,25.57l47.12,0c0-12.54-8-23-18.59-25.53a7.83,7.83,0,0,0,2.82-6,7.7,7.7,0,0,0-1-3.79c8.17-2.94,15.32-11,20.42-22.35,7.14-2.19,25.63-9.51,27.27-27C130.33,41.36,128.55,35.7,124.34,32.06ZM29.15,48.15c-.43-4.56.34-7.74,2.3-9.46,2.21-1.93,5.89-2,8.3-1.8A108.8,108.8,0,0,0,43.9,65.15C37.59,62.2,30,56.86,29.15,48.15Zm77.14,16.93a108.75,108.75,0,0,0,4.1-28.24c2.41-.24,6.09-.14,8.3,1.79,2,1.71,2.74,4.89,2.32,9.45C120.19,56.75,112.59,62.1,106.29,65.08Z" transform="translate(-5.42 -1.11)" fill="#1e71a5"/>
        <path d="M54.25,22.55H46q-.41,4.36-.41,9c0,21,6.66,39.23,16.31,47.93C55.37,66.88,52,48.89,53.54,29.24Q53.81,25.85,54.25,22.55Z" transform="translate(-5.42 -1.11)" fill="#50bbf5"/>
        <path d="M30.83,53.9C33.59,63.2,41.65,67.38,45,68.62l-1.39-3.69C43.5,64.89,35.25,61.57,30.83,53.9Z" transform="translate(-5.42 -1.11)" fill="#174890"/>
        <path d="M25.8,32.13c-4.36,4.06-6.09,9.6-5.22,17.33a24.32,24.32,0,0,0,6.18,13.78c-1.62-3.12-4.05-9-4.38-13.2-.59-7.55,1.86-12.59,5.21-16.36,3.23-3.62,9.33-4.4,12-3.89l.3-1.58C39,28,30.57,27.68,25.8,32.13Z" transform="translate(-5.42 -1.11)" fill="#174890"/>
        <path d="M120.64,33.92c-3.63-3.17-10.24-2.68-13-2.13l1.28,5.31c1.82-.42,7.18-1,10,1.52,2,1.7,2.74,4.88,2.31,9.45C119.85,63,98.17,68.12,98,68.17l.77,3.46c8.74-3.24,23.68-10.81,25-25C124.31,40.48,123.27,36.21,120.64,33.92Z" transform="translate(-5.42 -1.11)" fill="#021d33"/>
        <path d="M77,107.54a23.49,23.49,0,0,1,0,26.06l21.76,0C98.69,119.83,89.11,108.57,77,107.54Z" transform="translate(-5.42 -1.11)" fill="#174890"/>
        <path d="M76.34,107.49a21.34,21.34,0,0,1,12.26,26.1H98.88C98.87,119.53,88.87,108.08,76.34,107.49Z" transform="translate(-5.42 -1.11)" fill="#021d33"/>
        <path d="M78.07,95a7.82,7.82,0,0,1-5.37,13.48,7.85,7.85,0,0,1-3-.58A7.81,7.81,0,1,0,78.07,95Z" transform="translate(-5.42 -1.11)" fill="#021d33"/>
        <path d="M75.11,94.14a7.81,7.81,0,0,0-7.34,5.15A20.5,20.5,0,0,0,76,101.07a19.91,19.91,0,0,0,6.62-1.15A7.8,7.8,0,0,0,75.11,94.14Z" transform="translate(-5.42 -1.11)" fill="#174890"/>
        <path d="M109.83,22.51H94.11a51.39,51.39,0,0,1,3,17.27c0,25.73-18.79,46.72-42.37,47.76,5.77,7.5,12.83,11.91,20.44,11.9,19.52,0,35.32-29,35.29-64.81A116.91,116.91,0,0,0,109.83,22.51Z" transform="translate(-5.42 -1.11)" fill="#174890"/>
        <path d="M109.83,22.51h-2.3a73.1,73.1,0,0,1,1.22,13.24A72.42,72.42,0,0,1,71.56,99.12a18.87,18.87,0,0,0,3.61.33c19.52,0,35.32-29,35.29-64.81A116.91,116.91,0,0,0,109.83,22.51Z" transform="translate(-5.42 -1.11)" fill="#021d33"/>
        <path d="M71.49,101.59a4.64,4.64,0,0,1-2.31-.54,8,8,0,0,0-.14,1.47,7.77,7.77,0,0,0,1.36,4.4A14.36,14.36,0,0,1,71.49,101.59Z" transform="translate(-5.42 -1.11)" fill="#308aca"/>
        <path d="M65.94,112.43S56.26,117.17,55.55,127c4.24-5.94,11.34-11.79,15.15-12.83A10.56,10.56,0,0,1,65.94,112.43Z" transform="translate(-5.42 -1.11)" fill="#308aca"/>
      </g>
    </g>
    <path d="M56.86,112.84a4.43,4.43,0,0,1-3.42-1.31,4.77,4.77,0,0,1-1.3-4,2.67,2.67,0,0,0-.64-2.33c-.66-.66-1.25-.67-2.33-.64a4.62,4.62,0,0,1-5.26-5.27v-.44l2.24,0c0,.16,0,.32,0,.48a2.46,2.46,0,0,0,3,3,4.62,4.62,0,0,1,5.27,5.27A2.66,2.66,0,0,0,55,110c.66.66,1.26.67,2.33.65h.48l0,2.23h-1Z" transform="translate(-5.42 -1.11)" fill="#308aca"/>
    <path d="M130.56,101.11a4.45,4.45,0,0,1-3.42-1.31,4.78,4.78,0,0,1-1.3-4c0-1.07,0-1.66-.64-2.32a2.61,2.61,0,0,0-2.33-.64,4.63,4.63,0,0,1-5.26-5.27c0-.15,0-.29,0-.44h2.24c0,.16,0,.33,0,.49,0,1.07,0,1.66.64,2.32a2.64,2.64,0,0,0,2.33.65,4.62,4.62,0,0,1,5.26,5.26,2.64,2.64,0,0,0,.65,2.33c.66.66,1.25.67,2.32.64h.48l0,2.24h-1Z" transform="translate(-5.42 -1.11)" fill="#ffa496"/>
    <path d="M60.75,15.06l-2.23,0c0-.16,0-.32,0-.48,0-1.07,0-1.67-.65-2.32a2.63,2.63,0,0,0-2.32-.65,4.78,4.78,0,0,1-4-1.3,4.78,4.78,0,0,1-1.3-4A2.63,2.63,0,0,0,49.64,4c-.65-.66-1.25-.67-2.32-.65h-.48l0-2.23h.44a4.78,4.78,0,0,1,4,1.3,4.77,4.77,0,0,1,1.3,4c0,1.08,0,1.67.64,2.33s1.25.67,2.33.64a4.62,4.62,0,0,1,5.26,5.27C60.76,14.77,60.75,14.91,60.75,15.06Z" transform="translate(-5.42 -1.11)" fill="#50bbf5"/>
    <path d="M90.46,38.5c0-.15,0-.29,0-.44a4.62,4.62,0,0,1,5.26-5.26A2.64,2.64,0,0,0,98,32.15c.66-.66.67-1.25.64-2.32A4.62,4.62,0,0,1,104,24.56h.44l0,2.24h-.48a2.45,2.45,0,0,0-3,3A4.62,4.62,0,0,1,95.65,35a2.63,2.63,0,0,0-2.32.65c-.66.66-.67,1.25-.65,2.32,0,.17,0,.33,0,.49Z" transform="translate(-5.42 -1.11)" fill="#1e97d9"/>
    <path d="M116.3,147.89c0-.14,0-.29,0-.43a4.62,4.62,0,0,1,5.27-5.27,2.66,2.66,0,0,0,2.32-.64c.66-.66.67-1.25.64-2.33a4.62,4.62,0,0,1,5.27-5.26h.44v2.24h-.49c-1.07,0-1.66,0-2.32.65a2.63,2.63,0,0,0-.65,2.32,4.62,4.62,0,0,1-5.26,5.27c-1.08,0-1.67,0-2.33.64s-.67,1.25-.64,2.33c0,.16,0,.32,0,.48Z" transform="translate(-5.42 -1.11)" fill="#de4d4d"/>
    <path d="M121.14,20.89c0-.15,0-.29,0-.44a4.62,4.62,0,0,1,5.27-5.27c1.07,0,1.66,0,2.32-.64s.67-1.25.65-2.33a4.74,4.74,0,0,1,1.3-4,4.77,4.77,0,0,1,4-1.3h.44V9.19h-.49c-1.07,0-1.66,0-2.32.65a2.63,2.63,0,0,0-.65,2.32,4.62,4.62,0,0,1-5.26,5.27,2.64,2.64,0,0,0-2.33.65c-.66.65-.67,1.25-.64,2.32,0,.16,0,.32,0,.48Z" transform="translate(-5.42 -1.11)" fill="#174890"/>
    <path d="M5.44,119.28c0-.14,0-.29,0-.43a4.78,4.78,0,0,1,1.3-4,4.78,4.78,0,0,1,4-1.3,2.63,2.63,0,0,0,2.32-.65,2.62,2.62,0,0,0,.65-2.32,4.62,4.62,0,0,1,5.27-5.27h.43v2.24h-.48a2.64,2.64,0,0,0-2.33.65c-.66.66-.67,1.25-.64,2.32a4.78,4.78,0,0,1-1.3,4,4.78,4.78,0,0,1-4,1.3c-1.07,0-1.66,0-2.32.64a2.64,2.64,0,0,0-.65,2.33c0,.16,0,.32,0,.48Z" transform="translate(-5.42 -1.11)" fill="#fa7268"/>
    <rect x="69.6" y="26.46" width="4.75" height="4.75" transform="translate(-4.74 58.23) rotate(-45)" fill="#50bbf5"/>
    <rect x="104.66" y="107.41" width="4.75" height="4.75" transform="translate(-51.7 106.73) rotate(-45)" fill="#50bbf5"/>
    <rect x="23.35" y="8.08" width="4.75" height="4.75" transform="translate(9.84 35.07) rotate(-90)" fill="#ffa496"/>
    <rect x="30.43" y="140.99" width="4.75" height="4.75" transform="translate(-97.19 64.08) rotate(-45)" fill="#fff"/>
    <rect x="140.01" y="107.41" width="4.75" height="4.75" transform="translate(-41.35 131.73) rotate(-45)" fill="#fff"/>
    <rect x="12.52" y="40.27" width="4.75" height="4.75" transform="translate(-31.21 21.92) rotate(-45)" fill="#de4d4d"/>
    <rect x="138.5" y="60.86" width="4.75" height="4.75" transform="translate(-8.88 117.03) rotate(-45)" fill="#308aca"/>
  </g>
</svg>
