<svg xmlns="http://www.w3.org/2000/svg" xmlns:xlink="http://www.w3.org/1999/xlink" viewBox="0 0 133.02 133.02">
  <defs>
    <linearGradient id="linear-gradient" x1="43.53" y1="22.89" x2="88.09" y2="22.89" gradientUnits="userSpaceOnUse">
      <stop offset="0" stop-color="#ffa496"/>
      <stop offset="1" stop-color="#de4d4d"/>
    </linearGradient>
  </defs>
  <g style="isolation: isolate">
    <g id="Iconexam">
      <circle cx="75.47" cy="74.81" r="66.51" transform="translate(-39.75 66.98) rotate(-45)" fill="#50bbf5" opacity="0.1"/>
      <path d="M75.9,132.08v-1.91c1.25,0,2.52-.06,3.76-.16l.14,1.91C78.51,132,77.2,132.07,75.9,132.08ZM72,132c-1.28-.08-2.59-.2-3.87-.36l.24-1.9c1.24.16,2.5.27,3.74.35Zm11.65-.48-.27-1.89c1.23-.18,2.48-.4,3.7-.66l.4,1.87C86.23,131.09,84.94,131.32,83.66,131.5ZM64.29,131c-1.26-.25-2.53-.54-3.78-.88l.49-1.85c1.21.33,2.45.61,3.67.85Zm27-1.12L90.74,128c1.2-.34,2.4-.73,3.58-1.15l.65,1.8C93.76,129.12,92.51,129.52,91.27,129.87ZM56.78,129c-1.22-.42-2.45-.89-3.64-1.39l.75-1.77c1.15.49,2.33,1,3.52,1.35Zm41.8-1.73-.77-1.75c1.14-.51,2.28-1.06,3.38-1.64l.89,1.7C100.94,126.14,99.76,126.71,98.58,127.23Zm-49-1.31c-1.16-.58-2.31-1.21-3.41-1.87l1-1.65c1.07.64,2.18,1.25,3.29,1.82Zm55.85-2.31-1-1.63c1.06-.65,2.11-1.35,3.13-2.08l1.11,1.56C107.65,122.21,106.56,122.94,105.46,123.61Zm-62.54-1.67c-1.06-.74-2.11-1.52-3.13-2.32l1.2-1.5c1,.78,2,1.53,3,2.24Zm68.87-2.85-1.21-1.48c1-.78,1.91-1.62,2.82-2.48l1.31,1.39C113.77,117.41,112.78,118.28,111.79,119.09Zm-75-2c-.95-.87-1.88-1.79-2.78-2.72L35.44,113c.86.91,1.77,1.79,2.69,2.63Zm80.63-3.33-1.41-1.3c.85-.92,1.68-1.87,2.47-2.84l1.49,1.2C119.19,111.82,118.34,112.81,117.46,113.76Zm-86-2.3c-.83-1-1.63-2-2.39-3.07l1.55-1.12c.73,1,1.51,2,2.31,3Zm90.89-3.75-1.56-1.1c.72-1,1.41-2.08,2.06-3.15l1.63,1C123.82,105.56,123.1,106.65,122.35,107.71Zm-95.46-2.54c-.68-1.11-1.34-2.24-1.95-3.37l1.69-.9c.59,1.09,1.22,2.19,1.89,3.25Zm99.5-4.12-1.7-.88c.57-1.11,1.12-2.26,1.61-3.4l1.76.76C127.55,98.71,127,99.9,126.39,101.05ZM23.23,98.31c-.54-1.18-1-2.39-1.48-3.6l1.8-.66c.43,1.16.91,2.33,1.42,3.48ZM129.48,93.9l-1.8-.63c.41-1.18.79-2.39,1.13-3.59l1.84.51C130.31,91.44,129.91,92.69,129.48,93.9ZM20.52,91c-.36-1.24-.69-2.51-1-3.77l1.87-.41c.27,1.21.59,2.44.94,3.64Zm111.05-4.61L129.69,86c.26-1.23.47-2.47.63-3.71l1.9.26C132.05,83.85,131.83,85.14,131.57,86.41Zm-112.73-3c-.19-1.27-.34-2.57-.45-3.86l1.91-.16c.1,1.25.25,2.5.43,3.74ZM132.61,78.7l-1.91-.13c.09-1.24.13-2.51.13-3.76,0-.56,0-1.11,0-1.66l1.92-.06c0,.57,0,1.15,0,1.72C132.74,76.11,132.7,77.41,132.61,78.7Zm-114.41-3v-.86c0-1,0-2,.08-3l1.91.1c-.05,1-.08,2-.08,2.93,0,.28,0,.56,0,.83Zm112.37-6.28c-.13-1.24-.29-2.5-.49-3.72l1.88-.32c.22,1.27.39,2.57.51,3.86ZM20.51,68.13l-1.9-.23c.16-1.29.36-2.58.6-3.84l1.88.35C20.86,65.63,20.66,66.88,20.51,68.13ZM129.33,62c-.29-1.22-.62-2.44-1-3.63l1.83-.57c.38,1.23.73,2.5,1,3.75ZM21.91,60.74l-1.85-.48c.33-1.25.7-2.51,1.12-3.73l1.81.61C22.59,58.32,22.23,59.53,21.91,60.74ZM127.1,54.8c-.45-1.16-.95-2.33-1.48-3.46l1.74-.81c.55,1.17,1.06,2.37,1.53,3.57ZM24.32,53.61l-1.77-.73c.49-1.2,1-2.39,1.61-3.55l1.72.86C25.32,51.31,24.79,52.46,24.32,53.61ZM123.91,48c-.61-1.1-1.26-2.18-1.93-3.23l1.61-1c.69,1.08,1.37,2.21,2,3.34ZM27.67,46.87l-1.66-1c.66-1.13,1.36-2.23,2.09-3.3l1.58,1.08C29,44.72,28.3,45.79,27.67,46.87Zm92.16-5.18c-.75-1-1.54-2-2.35-2.94l1.45-1.25c.84,1,1.66,2,2.43,3Zm-87.93-1-1.5-1.18c.8-1,1.64-2,2.5-3l1.43,1.28C33.49,38.7,32.67,39.67,31.9,40.65Zm83-4.67c-.88-.89-1.8-1.77-2.73-2.59L113.47,32c1,.85,1.91,1.75,2.82,2.68Zm-78-.92-1.33-1.37c.92-.9,1.89-1.78,2.88-2.62l1.24,1.47C38.77,33.34,37.84,34.19,36.94,35.06ZM109.3,31c-1-.77-2-1.51-3.06-2.2l1.07-1.59c1.07.71,2.13,1.48,3.16,2.27ZM42.68,30.2l-1.14-1.54c1-.76,2.12-1.5,3.21-2.2l1,1.62C44.73,28.75,43.68,29.46,42.68,30.2Zm60.37-3.4c-1.08-.62-2.2-1.22-3.33-1.77l.84-1.72c1.17.57,2.33,1.19,3.44,1.83Zm-54-.63-.92-1.68c1.14-.62,2.31-1.21,3.48-1.75l.8,1.74C51.25,25,50.12,25.57,49,26.17ZM96.28,23.5c-1.15-.47-2.35-.91-3.53-1.3l.59-1.82c1.23.4,2.46.86,3.66,1.34ZM55.84,23l-.68-1.79c1.22-.46,2.46-.88,3.69-1.25l.55,1.83C58.22,22.18,57,22.59,55.84,23Zm33.29-1.88c-1.21-.31-2.44-.58-3.67-.8l.34-1.88c1.27.23,2.55.51,3.81.82ZM63,20.85,62.61,19c1.26-.29,2.55-.54,3.82-.74l.3,1.89C65.5,20.33,64.26,20.57,63,20.85Zm18.7-1.05c-1.24-.14-2.5-.24-3.75-.29l.08-1.91c1.3,0,2.6.16,3.88.3Zm-11.27-.13-.17-1.9c1.27-.12,2.58-.19,3.88-.22l0,1.92C73,19.49,71.7,19.56,70.47,19.67Z" transform="translate(-8.96 -8.3)" fill="#fff"/>
      <g>
        <rect x="25.74" y="18.97" width="80.14" height="101.13" fill="#093556"/>
        <rect x="25.74" y="18.97" width="40.07" height="101.13" fill="#174890"/>
        <path d="M47,15.41H84.62a3.47,3.47,0,0,1,3.47,3.47v11.5a0,0,0,0,1,0,0H43.53a0,0,0,0,1,0,0V18.88A3.47,3.47,0,0,1,47,15.41Z" fill="url(#linear-gradient)"/>
        <path d="M54.91,6.42h21.8a3.71,3.71,0,0,1,3.71,3.71v5.27a0,0,0,0,1,0,0H51.2a0,0,0,0,1,0,0V10.14A3.71,3.71,0,0,1,54.91,6.42Z" fill="#ffa496"/>
        <rect x="34.07" y="25.59" width="63.49" height="86.23" fill="#f0f0f0"/>
        <rect x="40.35" y="72.7" width="12.21" height="12.21" fill="#cecfd0"/>
        <rect x="40.35" y="92.19" width="12.21" height="12.21" fill="#cecfd0"/>
        <rect x="61.89" y="72.7" width="29.32" height="3.34" fill="#cecfd0"/>
        <rect x="61.89" y="79.22" width="24.11" height="3.34" fill="#cecfd0"/>
        <rect x="61.89" y="92.19" width="29.32" height="3.34" fill="#cecfd0"/>
        <rect x="61.89" y="98.71" width="24.11" height="3.34" fill="#cecfd0"/>
        <rect x="51.2" y="10.14" width="29.23" height="5.27" fill="#de4d4d"/>
        <rect x="43.53" y="21.4" width="44.56" height="4.18" fill="#de4d4d"/>
        <path d="M54.74,93.21a1.8,1.8,0,0,1-1.37-.64l-4.52-5.33a1.8,1.8,0,0,1,2.75-2.32l3,3.58L60.83,80a1.79,1.79,0,1,1,2.9,2.1L56.19,92.46a1.77,1.77,0,0,1-1.38.74Z" transform="translate(-8.96 -8.3)" fill="#308aca"/>
        <path d="M54.74,112.7a1.77,1.77,0,0,1-1.37-.64l-4.52-5.33a1.8,1.8,0,0,1,2.75-2.32l3,3.58,6.2-8.55a1.79,1.79,0,1,1,2.9,2.11L56.19,112a1.81,1.81,0,0,1-1.38.75Z" transform="translate(-8.96 -8.3)" fill="#308aca"/>
        <path d="M81,49.14c0,4.19-2.77,7.59-6.19,7.59s-6.18-3.4-6.18-7.59,2.77-7.6,6.18-7.6S81,44.94,81,49.14ZM85.43,60a5.3,5.3,0,0,0-6-1.2A6.32,6.32,0,0,1,77,60H72.58a6.39,6.39,0,0,1-2.5-1.2,5.29,5.29,0,0,0-6,1.2s-3.8,3.69-3.8,7.38c0,2.17.43,4.23,2,4.23h25c1.52,0,2-2.06,2-4.23C89.23,63.68,85.43,60,85.43,60Z" transform="translate(-8.96 -8.3)" fill="#174890"/>
      </g>
      <g>
        <path d="M118.89,133.58H90.56a2.78,2.78,0,0,1-2.78-2.78V96.59h33.89V130.8A2.78,2.78,0,0,1,118.89,133.58Z" transform="translate(-8.96 -8.3)" fill="#50bbf5"/>
        <rect x="76.04" y="82.09" width="39.46" height="8.05" fill="#308aca"/>
        <rect x="90.52" y="99.73" width="22.19" height="14.11" fill="#fff"/>
        <rect x="99.9" y="103.62" width="12.92" height="1.85" fill="#6c7180"/>
        <rect x="99.9" y="108.1" width="12.92" height="1.85" fill="#6c7180"/>
        <path d="M104.73,90.39v43.19h14.16a2.78,2.78,0,0,0,2.78-2.78V98.45h2.78V90.39Z" transform="translate(-8.96 -8.3)" fill="#d1d3d4" style="mix-blend-mode: multiply"/>
      </g>
      <g>
        <g style="mix-blend-mode: multiply">
          <path d="M92.23,122.3c-5.68,0-10.28,2.87-10.28,6.41V131c0,3.55,4.6,6.42,10.28,6.42s10.27-2.87,10.27-6.42v-2.32C102.5,125.17,97.9,122.3,92.23,122.3Z" transform="translate(-8.96 -8.3)" fill="#d1d3d4"/>
        </g>
        <path d="M82,128.71V131c0,3.55,4.6,6.42,10.28,6.42s10.27-2.87,10.27-6.42v-2.32Z" transform="translate(-8.96 -8.3)" fill="#cecfd0"/>
        <ellipse cx="83.27" cy="120.41" rx="10.27" ry="6.41" fill="#fff"/>
        <path d="M86.17,132.49a.55.55,0,0,1,0-1l10.47-6.54a1.71,1.71,0,0,1,1.64,0,.56.56,0,0,1,0,1l-10.47,6.53A1.65,1.65,0,0,1,86.17,132.49Z" transform="translate(-8.96 -8.3)" fill="#cecfd0"/>
      </g>
    </g>
  </g>
</svg>
