<svg id="Layer_1" data-name="Layer 1" xmlns="http://www.w3.org/2000/svg" viewBox="0 0 119 119">
  <g>
    <g>
      <circle cx="60" cy="60" r="56.54" transform="translate(-5.34 114.23) rotate(-85.17)" fill="#fa7268"/>
      <path d="M60,119.5A59.5,59.5,0,1,1,119.5,60,59.57,59.57,0,0,1,60,119.5ZM60,6.42A53.58,53.58,0,1,0,113.58,60,53.63,53.63,0,0,0,60,6.42Z" transform="translate(-0.5 -0.5)" fill="#de4d4d"/>
    </g>
    <path d="M89,31a8.87,8.87,0,0,0-12.55,0L60,47.45,48.06,35.51,43.54,31A8.87,8.87,0,0,0,31,43.54L47.45,60,31,76.46A8.87,8.87,0,0,0,31,89l24.37,24.37c1.53.13,3.08.2,4.64.2A53.64,53.64,0,0,0,113.58,60c0-1.56-.07-3.11-.2-4.63l-.07-.07" transform="translate(-0.5 -0.5)" fill="#de4d4d"/>
    <path d="M72.55,60,89,43.54A8.87,8.87,0,0,0,76.46,31L60,47.45,43.54,31A8.87,8.87,0,0,0,31,43.54L47.45,60,31,76.46A8.87,8.87,0,1,0,43.54,89L60,72.55,76.46,89A8.87,8.87,0,0,0,89,76.46Z" transform="translate(-0.5 -0.5)" fill="#ecf0f1"/>
  </g>
</svg>
